# Blender 3.6.0
# www.blender.org
mtllib ship.mtl
o Cube
v -0.555865 0.172454 -0.222610
v 0.555865 0.172454 -0.222610
v -0.464461 0.271211 0.496509
v 0.464461 0.271211 0.496509
v -0.867936 0.029689 -0.223294
v 1.229141 -0.007254 0.497763
v 0.867936 0.029689 -0.223294
v -1.229141 -0.007254 0.497763
v -0.471662 -0.234683 0.497672
v 0.471662 -0.234683 0.497672
v -0.459676 -0.306615 -0.229336
v -1.035500 -0.263480 -0.223379
v 1.035500 -0.263480 -0.223379
v 0.459676 -0.306615 -0.229336
v -1.229141 -0.101919 0.497714
v 1.229141 -0.101919 0.497714
v 1.342507 0.000000 0.497740
v 0.545390 0.322806 0.496442
v 1.342507 -0.125270 0.497740
v -0.545390 0.322806 0.496442
v -1.342507 0.000000 0.497740
v -0.545390 -0.292981 0.497740
v 0.545390 -0.292981 0.497740
v -1.342507 -0.125270 0.497740
v 1.003723 -0.012819 0.398444
v 0.578704 0.126384 0.397497
v 1.003723 -0.076434 0.398367
v -0.578704 0.126384 0.397497
v -1.003723 -0.012819 0.398444
v -0.583950 -0.129149 0.398405
v 0.583950 -0.129149 0.398405
v -1.003723 -0.076434 0.398367
v 0.648720 -0.126590 -1.158653
v 0.781458 -0.054228 -0.817877
v -0.648720 -0.126590 -1.158653
v -0.280700 -0.488572 -1.146740
v 0.280700 -0.488572 -1.146740
v -0.781458 -0.054228 -0.817877
v -0.211930 -0.201927 -1.805588
v -0.099915 -0.359003 -1.724362
v 0.211930 -0.201927 -1.805588
v 0.099915 -0.359003 -1.724362
v -0.203868 0.261672 -0.222081
v 0.203868 0.261672 -0.222081
v 0.081208 0.322806 0.496442
v -0.081208 0.322806 0.496442
v -0.600448 0.029689 -0.223294
v 0.600448 0.029689 -0.223294
v -0.216224 -0.466822 -1.458833
v 0.216224 -0.466822 -1.458833
v -0.485331 -0.152153 -1.488039
v 0.485331 -0.152153 -1.488039
v -0.259878 -0.151640 -1.642876
v 0.259878 -0.151640 -1.642876
v -0.355345 -0.081434 -1.171480
v -0.299049 -0.120855 -1.446721
v 0.355344 -0.081434 -1.171480
v -0.262039 -0.179035 -1.817425
v -0.123512 -0.381895 -1.712524
v 0.262039 -0.179035 -1.817425
v 0.123512 -0.381895 -1.712524
v -0.211930 -0.201927 -1.747499
v -0.099915 -0.359003 -1.666272
v 0.211930 -0.201927 -1.747499
v 0.099915 -0.359003 -1.666272
v -0.343440 0.271074 0.295055
v -1.229141 -0.007399 0.398511
v -0.348765 -0.234821 0.296218
v 1.229141 -0.007399 0.398510
v 0.343440 0.271074 0.295055
v 0.348765 -0.234821 0.296218
v 1.229141 -0.007341 0.442670
v 0.464461 0.271133 0.441417
v -1.229141 -0.007341 0.442671
v -0.578704 0.126425 0.441657
v -1.003723 -0.012760 0.442604
v -1.003723 -0.076375 0.442527
v -0.583950 -0.129109 0.442565
v 1.003723 -0.012760 0.442604
v 0.578704 0.126425 0.441657
v 1.003723 -0.076375 0.442527
v 0.583950 -0.129109 0.442565
v 1.229141 -0.102000 0.442621
v 1.229119 -0.102004 0.442621
v 0.892119 -0.161070 0.442603
v 0.491611 -0.226033 0.442577
v 0.471584 -0.229281 0.442567
v 0.986746 0.068917 0.442287
v 0.493950 0.248374 0.441479
v 0.464633 0.259053 0.441445
v 1.229026 -0.007299 0.442670
v -0.988354 -0.138268 0.442604
v -0.471578 -0.228843 0.442566
v -0.494280 -0.224865 0.442577
v -1.229141 -0.102000 0.442621
v -1.229117 -0.102003 0.442621
v -1.229141 -0.102000 0.442619
v -0.888829 0.116591 0.442113
v -0.490160 0.251299 0.441471
v -0.464620 0.259931 0.441443
v -1.229141 -0.059881 0.442643
v 1.229141 -0.049454 0.442649
v -1.229026 -0.007299 0.442670
v -0.986746 0.068917 0.442287
v -0.476568 0.261672 -0.222081
v -1.022682 0.000000 -0.223379
v 0.476568 0.261672 -0.222081
v 1.022682 0.000000 -0.223379
v -0.568405 0.000000 -0.223379
v 0.568405 0.000000 -0.223379
v -0.555865 0.172454 -0.157870
v -0.867936 0.029689 -0.158554
v 0.555865 0.172454 -0.157870
v 0.867936 0.029689 -0.158554
v -0.600448 0.029689 -0.158554
v 0.600448 0.029689 -0.158554
v -0.109482 0.343643 -0.231699
v 0.109482 0.343643 -0.231699
v 2.023627 -0.161571 -0.223379
v 2.013397 -0.015836 -0.223379
v -2.013397 -0.015836 -0.223379
v -2.023627 -0.161571 -0.223379
v 0.781458 -0.229468 -0.764450
v -0.781458 -0.229468 -0.764449
v 2.181458 -0.089233 -0.592907
v 2.181458 -0.129683 -0.577578
v -2.181458 -0.089233 -0.592907
v -2.181458 -0.129683 -0.577578
vn 0.3948 0.9072 -0.1451
vn -0.3948 0.9072 -0.1451
vn 0.0160 0.9998 -0.0071
vn -0.1512 -0.9865 0.0624
vn 0.1512 -0.9865 0.0624
vn -0.1015 -0.9842 0.1454
vn -0.0005 0.0031 1.0000
vn -0.0000 -0.0002 1.0000
vn 0.0005 0.0031 1.0000
vn 0.0002 0.0008 1.0000
vn -0.0002 0.0008 1.0000
vn -0.6575 -0.6264 -0.4187
vn 0.6575 -0.6264 -0.4187
vn -0.0000 -0.9483 -0.3175
vn -0.0000 -1.0000 -0.0000
vn -0.0000 0.9879 -0.1550
vn -0.0000 1.0000 -0.0007
vn 0.0008 0.0026 1.0000
vn -0.0000 0.0012 1.0000
vn -0.0000 -0.9998 0.0187
vn -0.0000 -0.1165 -0.9932
vn -0.0000 0.0013 1.0000
vn -0.0000 -1.0000 0.0007
vn -0.0000 -0.9976 -0.0695
vn 0.6986 -0.6726 -0.2441
vn -0.6986 -0.6726 -0.2441
vn -0.0000 0.9964 -0.0848
vn -0.0050 0.9960 -0.0891
vn -0.0000 1.0000 -0.0000
vn -0.0160 0.9998 -0.0071
vn -0.0000 -0.9809 0.1945
vn -0.1428 0.9708 -0.1926
vn 0.9171 -0.3230 0.2338
vn 0.0050 0.9960 -0.0891
vn 0.1408 0.9712 -0.1923
vn 0.9171 0.3230 -0.2338
vn -0.0000 -0.4593 -0.8883
vn -0.8142 0.5806 -0.0000
vn 0.8142 0.5806 -0.0000
vn -0.0000 0.0023 1.0000
vn -0.0008 0.0026 1.0000
vn -0.3112 -0.9503 0.0011
vn 0.3112 -0.9503 0.0011
vn 0.1246 0.9922 -0.0011
vn -1.0000 -0.0000 -0.0000
vn 1.0000 -0.0000 -0.0000
vn -0.1246 0.9922 -0.0011
vn -0.9998 0.0205 -0.0000
vn 0.9998 0.0205 -0.0000
vn -0.1684 0.9852 0.0312
vn -0.3312 -0.9274 0.1740
vn -0.3200 -0.9416 0.1053
vn 0.1685 0.9817 0.0888
vn 0.3146 -0.9301 0.1896
vn -0.0000 0.9602 -0.2793
vn -0.7682 -0.0080 0.6402
vn -0.7706 -0.0095 0.6372
vn 0.7682 -0.0080 0.6402
vn 0.3425 0.9395 -0.0013
vn 0.3246 0.9230 -0.2068
vn 0.0001 0.0007 1.0000
vn 0.0004 -0.0008 1.0000
vn 0.0005 0.0026 1.0000
vn -0.0011 0.0022 1.0000
vn -0.0012 0.0011 1.0000
vn -0.0001 0.0007 1.0000
vn -0.0005 0.0026 1.0000
vn -0.0003 0.0023 1.0000
vn 0.3346 -0.9371 0.0995
vn 0.3219 -0.9396 0.1161
vn -0.3425 0.9395 -0.0013
vn -0.3200 0.9341 -0.1584
vn 0.0011 0.0021 1.0000
vn 0.0012 0.0011 1.0000
vn -0.0004 -0.0008 1.0000
vn -0.0008 0.0065 -1.0000
vn 0.0008 0.0065 -1.0000
vn -0.0000 0.0029 -1.0000
vn 0.0017 0.0043 -1.0000
vn -0.0017 0.0043 -1.0000
vn -0.0000 0.0048 -1.0000
vn 0.4160 -0.9094 -0.0000
vn 0.9545 0.2981 -0.0000
vn -0.9545 0.2981 -0.0000
vn -0.4160 -0.9094 -0.0000
vn -0.0000 0.9996 0.0286
vn -0.6522 0.7565 0.0470
vn 0.6522 0.7565 0.0470
vn 0.7298 0.0275 0.6831
vn 0.1015 -0.9842 0.1454
vn -0.7298 0.0275 0.6831
vn 0.9340 -0.1042 -0.3417
vn 0.1456 -0.3005 -0.9426
vn 0.0336 0.9905 -0.1337
vn -0.0336 0.9905 -0.1337
vn 0.0903 -0.9925 -0.0828
vn 0.9104 0.0834 0.4052
vn -0.0903 -0.9925 -0.0828
vn -0.9104 0.0834 0.4052
vn -0.1456 -0.3005 -0.9426
vn -0.9340 -0.1042 -0.3417
vn -0.6397 -0.6632 -0.3885
vn 0.6397 -0.6632 -0.3885
vn -0.3929 -0.9136 0.1046
vn -0.0753 -0.9924 -0.0978
vn 0.0753 -0.9924 -0.0978
vn 0.3929 -0.9136 0.1046
vt 0.500000 0.750000
vt 0.625000 0.750000
vt 0.625000 1.000000
vt 0.500000 1.000000
vt 0.500000 0.250000
vt 0.625000 0.250000
vt 0.625000 0.500000
vt 0.500000 0.500000
vt 0.375000 0.250000
vt 0.375000 0.500000
vt 0.375000 0.750000
vt 0.375000 1.000000
vt 0.609631 0.026021
vt 0.505499 0.009590
vt 0.500000 0.000000
vt 0.625000 0.000000
vt 0.493411 0.009204
vt 0.505499 0.240410
vt 0.609631 0.223979
vt 0.391831 0.224413
vt 0.493411 0.240796
vt 0.391831 0.025587
vt 0.375000 0.000000
vt 0.485894 0.566176
vt 0.485894 0.683824
vt 0.500000 0.583333
vt 0.500000 0.666667
vt 0.500000 0.666667
vt 0.500000 0.583333
vt 0.574174 0.226461
vt 0.504117 0.238047
vt 0.487615 0.238297
vt 0.419204 0.226821
vt 0.125000 0.750000
vt 0.125000 0.500000
vt 0.625000 0.670365
vt 0.625000 0.579635
vt 0.625000 0.083333
vt 0.625000 0.166667
vt 0.875000 0.666667
vt 0.875000 0.750000
vt 0.625000 0.666667
vt 0.500000 0.577825
vt 0.500000 0.583333
vt 0.508204 0.533485
vt 0.508204 0.511535
vt 0.625000 0.583333
vt 0.875000 0.500000
vt 0.875000 0.583333
vt 0.508204 0.741200
vt 0.508204 0.719250
vt 0.500000 0.541667
vt 0.500000 0.577029
vt 0.500000 0.581751
vt 0.073775 0.074832
vt 0.000000 0.000000
vt 0.625000 0.541667
vt 0.500000 0.541667
vt 0.163669 0.167948
vt 0.500000 0.708333
vt 0.500000 0.672175
vt 0.500000 0.672175
vt 0.500000 0.708333
vt 0.175495 0.235179
vt 0.625000 0.708333
vt 0.389106 0.614862
vt 0.389106 0.635138
vt 0.504117 0.011953
vt 0.574174 0.023539
vt 0.419204 0.023179
vt 0.487615 0.011703
vt 0.500121 0.009418
vt 0.505498 0.009590
vt 0.493408 0.009204
vt 0.449593 0.016271
vt 0.398621 0.024492
vt 0.396080 0.024902
vt 0.505513 0.009592
vt 0.605138 0.025312
vt 0.601174 0.024687
vt 0.534602 0.014182
vt 0.493411 0.240796
vt 0.498789 0.240625
vt 0.505498 0.240410
vt 0.493408 0.240796
vt 0.493411 0.240796
vt 0.396225 0.225122
vt 0.399204 0.225602
vt 0.464127 0.236073
vt 0.605391 0.224648
vt 0.394191 0.025592
vt 0.604430 0.026011
vt 0.604808 0.223988
vt 0.394379 0.224408
vt 0.505515 0.009592
vt 0.493410 0.240796
vt 0.463220 0.235580
vt 0.397345 0.224898
vt 0.498790 0.240625
vt 0.493412 0.240796
vt 0.397345 0.224898
vt 0.394379 0.224408
vt 0.604808 0.223988
vt 0.601655 0.224537
vt 0.505515 0.009592
vt 0.533875 0.014785
vt 0.600478 0.025380
vt 0.396694 0.025159
vt 0.448216 0.016493
vt 0.493410 0.009204
vt 0.394191 0.025592
vt 0.396694 0.025159
vt 0.505513 0.240408
vt 0.534596 0.235819
vt 0.551236 0.233193
vt 0.602131 0.225162
vt 0.505515 0.240408
vt 0.551842 0.233098
vt 0.533874 0.235215
vt 0.493410 0.009204
vt 0.493412 0.009204
vt 0.493412 0.240796
vt 0.574054 0.533485
vt 0.574053 0.741200
s 0
usemtl Material
f 108/1/1 107/2/1 18/3/1 17/4/1
f 21/5/2 20/6/2 105/7/2 106/8/2
f 108/1/3 17/4/3 120/1/3
f 22/9/4 24/5/4 12/8/4 11/10/4
f 14/11/5 13/1/5 19/4/5 23/12/5
f 12/8/6 24/5/6 122/8/6
f 4/13/7 6/14/7 17/15/7 18/16/7
f 6/14/8 16/17/8 19/15/8 17/15/8
f 8/18/9 3/19/9 20/6/9 21/5/9
f 9/20/10 15/21/10 24/5/10 22/9/10
f 16/17/11 10/22/11 23/23/11 19/15/11
f 15/21/8 8/18/8 21/5/8 24/5/8
f 49/10/12 51/8/12 58/8/12 59/10/12
f 52/1/13 50/11/13 61/11/13 60/1/13
f 49/10/14 59/10/14 61/11/14 50/11/14
f 39/24/15 41/25/15 64/25/15 62/24/15
f 53/26/16 54/27/16 60/28/16 58/29/16
f 9/20/17 10/22/17 71/22/17 68/20/17
f 28/30/18 29/31/18 32/32/18 30/33/18
f 10/22/19 9/20/19 22/9/19 23/23/19
f 11/10/20 14/11/20 23/34/20 22/35/20
f 44/36/21 43/37/21 117/37/21 118/36/21
f 4/13/22 18/16/22 45/38/22 46/39/22 20/6/22 3/19/22
f 4/13/23 3/19/23 66/19/23 70/13/23
f 37/11/24 36/10/24 49/10/24 50/11/24
f 33/1/25 37/11/25 50/11/25 52/1/25
f 36/10/26 35/8/26 51/8/26 49/10/26
f 45/40/27 18/41/27 107/2/27 44/42/27
f 55/43/28 38/8/28 106/8/28 109/44/28
f 47/45/29 5/46/29 112/46/29 115/45/29
f 21/5/30 106/8/30 121/8/30
f 43/47/27 105/7/27 20/48/27 46/49/27
f 11/10/31 36/10/31 37/11/31 14/11/31
f 7/50/29 48/51/29 116/51/29 114/50/29
f 53/26/32 58/29/32 51/52/32 35/8/32 38/8/32 55/53/32 56/54/32
f 56/55/33 53/56/33 105/57/33 109/58/33 55/59/33
f 110/60/34 108/1/34 34/1/34 57/61/34
f 57/62/35 34/1/35 33/1/35 52/63/35 60/28/35 54/27/35
f 57/64/36 54/56/36 107/65/36 110/60/36
f 39/24/37 40/66/37 59/10/37 58/8/37
f 42/67/37 41/25/37 60/1/37 61/11/37
f 40/66/37 42/67/37 61/11/37 59/10/37
f 41/25/37 39/24/37 58/8/37 60/1/37
f 62/24/37 64/25/37 65/67/37 63/66/37
f 41/25/38 42/67/38 65/67/38 64/25/38
f 42/67/29 40/66/29 63/66/29 65/67/29
f 40/66/39 39/24/39 62/24/39 63/66/39
f 70/13/40 66/19/40 68/20/40 71/22/40
f 25/68/41 26/69/41 31/70/41 27/71/41
f 26/69/42 25/68/42 79/68/42 80/69/42
f 29/31/43 28/30/43 75/30/43 76/31/43
f 30/33/44 32/32/44 77/32/44 78/33/44
f 25/68/45 27/71/45 81/71/45 79/68/45
f 32/32/46 29/31/46 76/31/46 77/32/46
f 27/71/47 31/70/47 82/70/47 81/71/47
f 28/30/48 30/33/48 78/33/48 75/30/48
f 31/70/49 26/69/49 80/69/49 82/70/49
f 102/72/45 83/17/45 16/17/45 6/14/45 69/14/45 72/73/45
f 71/22/50 10/22/50 16/17/50 83/17/50 84/74/50 85/75/50 86/76/50 87/77/50
f 91/78/51 69/14/51 6/14/51 4/13/51 70/13/51 90/79/51 89/80/51 88/81/51
f 70/13/52 69/14/52 91/78/52 88/81/52 89/80/52 90/79/52
f 8/18/46 15/21/46 95/82/46 101/83/46 74/84/46 67/18/46
f 96/85/53 95/86/53 15/21/53 9/20/53 68/20/53 93/87/53 94/88/53 92/89/53
f 66/19/54 3/19/54 100/90/54
f 105/57/55 43/37/55 44/36/55 107/65/55 54/56/55 53/56/55
f 87/91/56 90/92/56 70/13/56 71/22/56
f 70/13/57 90/92/57 73/13/57
f 100/93/58 93/94/58 68/20/58 66/19/58
f 91/95/59 72/14/59 69/14/59
f 69/14/60 70/13/60 73/13/60 91/95/60
f 78/33/61 77/32/61 96/96/61 92/97/61 94/98/61
f 77/32/62 76/31/62 74/18/62 101/99/62 95/100/62 96/96/62
f 75/30/63 78/33/63 94/101/63 93/102/63 100/103/63 99/104/63
f 80/69/64 79/68/64 72/14/64 91/105/64 88/106/64 89/107/64
f 91/105/65 73/13/65 89/107/65 88/106/65
f 81/71/66 82/70/66 86/108/66 85/109/66 84/110/66
f 82/70/67 80/69/67 89/107/67 90/92/67 87/111/67 86/112/67
f 89/107/68 73/13/68 90/92/68
f 3/19/69 8/18/69 67/18/69 103/113/69 104/114/69 98/115/69 99/116/69 100/90/69
f 103/113/70 67/18/70 66/19/70 98/115/70 104/114/70
f 103/117/71 67/18/71 74/18/71
f 98/118/72 66/19/72 67/18/72 103/117/72
f 103/117/73 74/18/73 76/31/73 75/30/73 99/104/73 98/118/73 104/119/73
f 98/118/74 103/117/74 104/119/74
f 72/14/75 79/68/75 81/71/75 84/120/75 83/121/75
f 101/99/45 97/122/45 95/100/45
f 1/123/76 5/46/76 106/8/76 105/57/76
f 7/50/77 2/124/77 107/2/77 108/1/77
f 5/46/78 47/45/78 109/58/78 106/8/78
f 47/45/79 1/123/79 105/57/79 109/58/79
f 48/51/78 7/50/78 108/1/78 110/60/78
f 2/124/80 48/51/80 110/60/80 107/2/80
f 111/123/81 115/45/81 112/46/81
f 114/50/81 116/51/81 113/124/81
f 5/46/82 1/123/82 111/123/82 112/46/82
f 48/51/83 2/124/83 113/124/83 116/51/83
f 1/123/84 47/45/84 115/45/84 111/123/84
f 2/124/85 7/50/85 114/50/85 113/124/85
f 117/47/86 46/49/86 45/40/86 118/42/86
f 43/47/87 46/49/87 117/47/87
f 45/40/88 44/42/88 118/42/88
f 120/1/89 17/4/89 19/4/89 119/1/89
f 19/4/90 13/1/90 119/1/90
f 21/5/91 121/8/91 122/8/91 24/5/91
f 34/1/92 123/56/92 33/1/92
f 123/56/93 34/1/93 125/1/93 126/56/93
f 34/1/94 108/1/94 120/1/94 125/1/94
f 106/8/95 38/8/95 127/8/95 121/8/95
f 13/1/96 123/56/96 126/56/96 119/1/96
f 119/1/97 126/56/97 125/1/97 120/1/97
f 122/8/98 128/56/98 124/56/98 12/8/98
f 122/8/99 121/8/99 127/8/99 128/56/99
f 128/56/100 127/8/100 38/8/100 124/56/100
f 38/8/101 35/8/101 124/56/101
f 124/56/102 35/8/102 36/10/102
f 37/11/103 33/1/103 123/56/103
f 36/10/104 11/10/104 124/56/104
f 11/10/105 12/8/105 124/56/105
f 13/1/106 14/11/106 123/56/106
f 14/11/107 37/11/107 123/56/107
